<svg xmlns="http://www.w3.org/2000/svg" width="15" height="17" viewBox="0 0 15 17">
    <path fill="#272727" fill-rule="evenodd" d="M12.273 5.667c1.5 0 2.727-1.275 2.727-2.834C15 1.275 13.773 0 12.273 0c-1.5 0-2.728 1.275-2.728 2.833 0 .284.069.496.137.709L4.705 6.517c-.546-.496-1.228-.85-1.978-.85C1.227 5.667 0 6.942 0 8.5c0 1.558 1.227 2.833 2.727 2.833.75 0 1.432-.354 1.978-.85l4.977 2.975c-.068.213-.137.496-.137.709 0 1.558 1.228 2.833 2.728 2.833 1.5 0 2.727-1.275 2.727-2.833 0-1.559-1.227-2.834-2.727-2.834-.75 0-1.432.354-1.978.85L5.318 9.208c.068-.212.137-.425.137-.708s-.069-.496-.137-.708l4.977-2.975c.546.495 1.228.85 1.978.85z"/>
</svg>
