<svg xmlns="http://www.w3.org/2000/svg" width="24" height="24" viewBox="0 0 24 24">
    <path fill="#8777B3" fill-rule="nonzero" d="M23.88 11.16a.413.413 0 0 0-.382-.363l-9.936-.639L16.036.516A.414.414 0 0 0 15.3.172l-2.752 3.86a12.05 12.05 0 0 0-2.172 5.723l-.02.196-3.048-.196a3.697 3.697 0 0 0-3.38-2.95 3.704 3.704 0 0 0-3.92 3.448 3.7 3.7 0 0 0 3.686 3.93c1.468 0 2.75-.869 3.341-2.131l3.032.646-.327 3.08a3.686 3.686 0 0 0-3.127 2.747 3.665 3.665 0 0 0 .399 2.797 3.665 3.665 0 0 0 2.259 1.695 3.692 3.692 0 0 0 4.495-2.659 3.697 3.697 0 0 0-1.76-4.128l.76-2.957.194.04c2.03.432 4.134.332 6.114-.289l4.521-1.42a.416.416 0 0 0 .286-.444zm-18.158-.54a2.021 2.021 0 0 1-2.162 1.9 2.038 2.038 0 0 1-1.9-2.16 2.042 2.042 0 0 1 2.161-1.9 2.035 2.035 0 0 1 1.9 2.16zm6.438 9.327a2.05 2.05 0 0 1-2.476 1.464 2.017 2.017 0 0 1-1.246-.934 2.034 2.034 0 1 1 3.721-.53zm-.228-7.683a.887.887 0 1 1 .889-.889.888.888 0 0 1-.89.89z"/>
</svg>
