<svg xmlns="http://www.w3.org/2000/svg" width="24" height="24" viewBox="0 0 24 24">
    <path fill="#8777B3" fill-rule="nonzero" d="M20.817 4.303c2.291 2.547 3.337 5.824 2.945 9.229-.349 3.025-1.798 5.96-3.978 8.052C18.137 23.164 16.47 24 14.966 24c-2.115 0-3.592-1.626-3.592-3.954 0-2.17-.767-2.17-1.654-2.17-.375 0-.797.035-1.244.073-.37.03-.753.062-1.15.078-.07.003-.14.004-.21.004-2.662 0-5.336-1.926-6.504-4.683C-.822 9.962.29 6.213 3.663 3.063 5.777 1.088 8.567 0 11.52 0c3.5 0 6.802 1.528 9.297 4.303zM14.572 18.89c-.359 1.043-.015 2.11.767 2.38.783.269 1.71-.36 2.07-1.403.359-1.043.015-2.11-.767-2.38-.782-.269-1.71.36-2.07 1.403zM16.922 8.5c0 .827.672 1.5 1.5 1.5.826 0 1.5-.673 1.5-1.5s-.674-1.5-1.5-1.5c-.828 0-1.5.673-1.5 1.5zm-1-4c0-.827-.674-1.5-1.5-1.5-.828 0-1.5.673-1.5 1.5s.672 1.5 1.5 1.5c.826 0 1.5-.673 1.5-1.5zM8.421 3c-.828 0-1.5.673-1.5 1.5S7.593 6 8.421 6c.826 0 1.5-.673 1.5-1.5S9.247 3 8.421 3zm-4 4c-.828 0-1.5.673-1.5 1.5s.672 1.5 1.5 1.5c.826 0 1.5-.673 1.5-1.5S5.247 7 4.421 7z"/>
</svg>
