<?xml version="1.0" encoding="UTF-8"?>
<svg width="24px" height="24px" viewBox="0 0 24 24" version="1.1" xmlns="http://www.w3.org/2000/svg" xmlns:xlink="http://www.w3.org/1999/xlink">
    <!-- Generator: Sketch 52.5 (67469) - http://www.bohemiancoding.com/sketch -->
    <title>mm-section</title>
    <desc>Created with Sketch.</desc>
    <g id="Page-1" stroke="none" stroke-width="1" fill="none" fill-rule="evenodd">
        <g id="mm-section" fill="#FFFFFF" fill-rule="nonzero">
            <path d="M20.817,4.303 C23.108,6.85 24.154,10.127 23.762,13.532 C23.413,16.557 21.964,19.492 19.784,21.584 C18.137,23.164 16.47,24 14.966,24 C12.851,24 11.374,22.374 11.374,20.046 C11.374,17.876 10.607,17.876 9.72,17.876 C9.345,17.876 8.923,17.911 8.476,17.949 C8.106,17.979 7.723,18.011 7.326,18.027 C7.256,18.03 7.186,18.031 7.116,18.031 C4.454,18.031 1.78,16.105 0.612,13.348 C-0.822,9.962 0.29,6.213 3.663,3.063 C5.777,1.088 8.567,0 11.52,0 C15.02,0 18.322,1.528 20.817,4.303 Z M14.572,18.89 C14.213,19.933 14.557,21 15.339,21.27 C16.122,21.539 17.049,20.91 17.409,19.867 C17.768,18.824 17.424,17.757 16.642,17.487 C15.86,17.218 14.932,17.847 14.572,18.89 Z M16.922,8.5 C16.922,9.327 17.594,10 18.422,10 C19.248,10 19.922,9.327 19.922,8.5 C19.922,7.673 19.248,7 18.422,7 C17.594,7 16.922,7.673 16.922,8.5 Z M15.922,4.5 C15.922,3.673 15.248,3 14.422,3 C13.594,3 12.922,3.673 12.922,4.5 C12.922,5.327 13.594,6 14.422,6 C15.248,6 15.922,5.327 15.922,4.5 Z M8.421,3 C7.593,3 6.921,3.673 6.921,4.5 C6.921,5.327 7.593,6 8.421,6 C9.247,6 9.921,5.327 9.921,4.5 C9.921,3.673 9.247,3 8.421,3 Z M4.421,7 C3.593,7 2.921,7.673 2.921,8.5 C2.921,9.327 3.593,10 4.421,10 C5.247,10 5.921,9.327 5.921,8.5 C5.921,7.673 5.247,7 4.421,7 Z" id="Shape"></path>
        </g>
    </g>
</svg>